<?xml version="1.0" standalone="no"?>
<!DOCTYPE svg PUBLIC "-//W3C//DTD SVG 20010904//EN"
 "http://www.w3.org/TR/2001/REC-SVG-20010904/DTD/svg10.dtd">
<svg version="1.0" xmlns="http://www.w3.org/2000/svg"
 width="450.000000pt" height="450.000000pt" viewBox="0 0 450.000000 450.000000"
 preserveAspectRatio="xMidYMid meet">
<metadata>
Created by potrace 1.11, written by Peter Selinger 2001-2013
</metadata>
<g transform="translate(0.000000,450.000000) scale(0.100000,-0.100000)"
fill="#000000" stroke="none">
<path d="M1545 3255 c-22 -31 -49 -67 -59 -80 -11 -14 -349 -465 -752 -1002
l-732 -978 1126 -3 1126 -2 73 56 c40 31 102 88 138 126 185 200 151 353 -108
477 -45 21 -130 62 -189 90 -148 70 -188 124 -155 204 8 18 34 48 57 67 33 26
40 29 31 13 -17 -33 -13 -77 10 -106 30 -40 125 -80 319 -137 219 -63 306 -94
397 -137 78 -38 181 -116 198 -150 6 -11 16 -27 22 -34 16 -20 33 -110 28
-148 -9 -68 -62 -151 -193 -303 -14 -17 25 -18 802 -18 l818 0 -49 58 c-26 31
-50 59 -53 62 -3 3 -41 48 -85 100 -44 52 -85 100 -91 105 -6 6 -51 57 -99
115 -49 58 -112 132 -141 165 -28 33 -94 110 -146 170 -52 61 -148 173 -214
250 -160 187 -306 358 -364 425 -26 30 -103 120 -171 200 -68 80 -136 159
-152 175 l-28 30 -37 -45 c-20 -24 -80 -94 -132 -155 -52 -61 -117 -137 -145
-170 -27 -33 -52 -62 -55 -65 -5 -5 -35 -40 -125 -145 -92 -108 -103 -120
-108 -115 -2 3 -165 220 -360 483 -196 262 -358 477 -360 477 -1 0 -20 -25
-42 -55z"/>
</g>
</svg>
